PathFileType	4	(X/Y/Z)	\\147.46.242.158\로컬 디스크 (e)\MOCAP Data\Iguana Capture\iguana\Project 2\Capture day 7\Session 2\Take13.trc
DataRate	CameraRate	NumFrames	NumMarkers	Units	OrigDataRate	OrigDataStartFrame	OrigNumFrames
120.0	120.0	16	23	mm	120.0	125	7542
Frame#	Time	ana:head1			ana:head2			ana:bone1			ana:bone2			ana:bone3			ana:tail1			ana:tail2			ana:tail3			ana:tail4			ana:Rforefoot1			ana:Rforefoot2			ana:Rforefoot3			ana:Lforefoot1			ana:Lforefoot2			ana:Lforefoot3			ana:RhindLeg1			ana:RhindLeg2			ana:RhindLeg3			ana:RhindLeg4			ana:LhindLeg1			ana:LhindLeg2			ana:LhindLeg3			ana:LhindLeg4			
		X1	Y1	Z1	X2	Y2	Z2	X3	Y3	Z3	X4	Y4	Z4	X5	Y5	Z5	X6	Y6	Z6	X7	Y7	Z7	X8	Y8	Z8	X9	Y9	Z9	X10	Y10	Z10	X11	Y11	Z11	X12	Y12	Z12	X13	Y13	Z13	X14	Y14	Z14	X15	Y15	Z15	X16	Y16	Z16	X17	Y17	Z17	X18	Y18	Z18	X19	Y19	Z19	X20	Y20	Z20	X21	Y21	Z21	X22	Y22	Z22	X23	Y23	Z23	

4544	37.858	414.63846	193.59305	46.52564	414.82492	204.34468	47.03256	415.56985	226.69713	40.66237	409.32739	254.70027	38.85526	398.42084	285.92834	33.46220	387.71823	316.57840	27.20308	364.38242	344.95267	16.97309	335.11307	373.32407	8.40176	313.37860	408.60092	3.91471	404.86520	220.92741	22.55732	392.53119	225.62387	14.09433	399.76987	216.73796	1.24800	429.76724	229.52870	27.46559	435.16058	240.95389	25.01588	437.12070	254.33426	9.83353	388.66498	285.41309	26.69051	370.68137	290.09375	19.71319	361.52451	307.05740	14.94494	371.67780	308.86856	2.11147	408.15469	290.73618	26.92949	425.25577	292.16653	18.73464	424.22159	303.92166	1.59595	432.23489	295.58008	1.44598	
4545	37.867	414.26062	192.70822	46.60601	414.57352	203.44775	47.13581	415.56638	225.69215	40.74417	409.68790	253.86299	38.92177	398.98743	285.07660	33.49339	388.04697	315.59869	27.23053	364.81049	344.14371	16.97267	335.62192	372.62329	8.36460	313.77649	407.78452	3.90280	404.35715	220.63748	22.72675	392.35678	225.72707	14.18976	399.76608	216.72023	1.25338	429.93747	227.90358	27.84480	435.46228	239.33849	25.77372	438.57755	251.54710	9.94837	389.22958	284.37906	26.77161	371.21982	289.13101	19.99695	361.64575	306.30301	15.51660	370.73370	307.40833	3.42824	408.56952	290.02435	26.93696	425.58752	291.96915	18.61206	424.28244	303.97070	1.66717	432.15305	295.65063	1.50450	
4546	37.875	413.88275	191.93640	46.66286	414.35983	202.58739	47.19878	415.56696	224.69206	40.77340	410.05850	253.02861	38.98811	399.43484	284.23438	33.52874	388.32104	314.68744	27.26045	365.20154	343.35461	16.95127	336.12686	371.95660	8.28917	314.18048	407.04120	3.89193	403.94754	220.32059	22.88812	392.14807	225.88115	14.32096	399.77759	216.70805	1.24095	429.89337	226.24380	28.02250	435.79254	237.63414	26.44246	440.23059	248.58185	10.22560	389.74042	283.40906	26.84266	371.75235	288.13010	20.26034	361.81046	305.51535	15.99766	369.55798	305.90732	4.84228	408.91629	289.32596	26.91770	425.90958	291.77826	18.52484	424.32410	303.98453	1.70783	432.11230	295.69174	1.56066	
4547	37.883	413.38867	191.18027	46.59046	414.14389	201.74008	47.22792	415.56387	223.81122	40.81930	410.43927	252.16949	39.00946	399.82834	283.35886	33.57818	388.51953	313.81909	27.25609	365.55191	342.60669	16.91665	336.63138	371.27695	8.20001	314.58820	406.35977	3.88539	403.69962	219.88120	22.96381	392.02869	225.89853	14.47163	399.79163	216.66098	1.23985	429.70233	224.59254	28.04765	436.15955	235.84123	27.05462	441.99881	245.49271	10.65690	390.16345	282.61102	26.93185	372.18445	287.09473	20.45951	361.98410	304.79828	16.38927	368.42413	304.58350	6.12950	409.21634	288.68298	26.89881	426.18625	291.58591	18.45177	424.33182	303.95840	1.71099	432.09799	295.73221	1.60586	
4548	37.892	412.92023	190.47269	46.51322	413.89325	200.90112	47.24388	415.56912	223.01071	40.87468	410.83926	251.30138	39.00548	400.19861	282.46402	33.64353	388.67575	312.96051	27.24820	365.85474	341.92535	16.89472	337.09909	370.58163	8.10240	315.00247	405.71136	3.87515	403.58246	219.30637	22.94269	392.02521	225.83133	14.60801	399.80899	216.58438	1.24522	429.33450	222.99475	27.96258	436.51941	233.94632	27.61551	443.77228	242.35074	11.27035	390.53177	281.90292	27.00862	372.54230	286.08810	20.69842	362.10422	304.18179	16.76736	367.59799	303.52750	7.16576	409.43381	288.03662	26.80893	426.40030	291.40305	18.39782	424.23312	303.90329	1.62816	432.12311	295.73422	1.60264	
4549	37.900	412.50287	189.78241	46.46422	413.62048	200.08704	47.26355	415.55469	222.27748	40.95256	411.23505	250.46561	38.98387	400.53085	281.58511	33.67481	388.80542	312.10916	27.25007	366.13397	341.21542	16.86766	337.50089	369.91956	8.03706	315.41827	405.05682	3.85815	403.52408	218.60196	22.89598	392.14801	225.64394	14.70340	399.80933	216.61551	1.20776	429.03262	221.51692	27.90811	436.86368	232.02873	28.20201	445.40399	239.15927	11.99571	390.84787	281.25577	27.09549	372.82065	285.13342	20.95173	362.15479	303.57678	17.08703	367.25476	302.77081	7.88437	409.64035	287.42874	26.73042	426.55792	291.23318	18.35076	424.12558	303.81952	1.50244	432.17059	295.71069	1.57636	
4550	37.908	412.18912	189.04523	46.45823	413.28860	199.33411	47.29773	415.53540	221.58794	41.05397	411.62378	249.66255	38.95118	400.82843	280.75412	33.67878	388.93283	311.27631	27.26657	366.40338	340.52267	16.87089	337.85678	369.27982	7.99178	315.81458	404.41476	3.85226	403.48434	217.86774	22.82683	392.38123	225.37865	14.73318	399.79419	216.73787	1.13872	428.94876	220.19679	27.87077	437.13605	230.15179	28.81107	446.76111	235.95482	12.74765	391.11386	280.65381	27.15491	373.07401	284.20068	21.20921	362.16040	302.93170	17.39849	367.28491	302.24832	8.33259	409.84579	286.85345	26.70329	426.65918	291.06839	18.30361	423.99936	303.78979	1.37625	432.23022	295.68146	1.53332	
4551	37.917	412.00946	188.21510	46.52200	412.91827	198.63953	47.31350	415.49286	220.88960	41.15253	412.00223	248.89612	38.94889	401.11212	279.98056	33.65635	389.05295	310.47037	27.29328	366.65100	339.78458	16.87574	338.15775	368.71866	7.98136	316.19388	403.78107	3.85461	403.34204	217.27182	22.81882	392.67471	225.06725	14.72908	399.76016	217.00287	0.99771	428.87338	218.89177	27.89478	437.32724	228.35536	29.41276	447.93518	232.80052	13.53967	391.36118	280.06119	27.23361	373.33612	283.27652	21.50896	362.30399	302.10220	17.65928	367.49841	301.79379	8.69107	410.05722	286.30295	26.71675	426.66083	290.92047	18.22202	423.91714	303.77533	1.27021	432.25574	295.67075	1.50091	
4552	37.925	411.88754	187.43883	46.64068	412.59686	197.96817	47.32397	415.38748	220.15582	41.18870	412.31830	248.17668	38.98645	401.37338	279.27362	33.62758	389.18094	309.69592	27.34163	366.89435	339.02170	16.87610	338.43793	368.22733	7.99718	316.53061	403.15009	3.87143	403.04578	216.89774	22.90738	392.89340	224.82208	14.70940	399.71658	217.33044	0.84096	428.72491	217.65628	27.91868	437.43790	226.60263	30.00691	448.83203	229.65732	14.33343	391.63037	279.33795	27.29152	373.57440	282.43799	21.81367	362.45395	301.22250	17.95479	367.72446	301.30704	9.09303	410.28711	285.77319	26.77923	426.66068	290.76382	18.12091	423.89893	303.75830	1.23818	432.28604	295.69235	1.54910	
4553	37.933	411.78351	186.57793	46.76687	412.27988	197.27199	47.30914	415.24304	219.37997	41.16771	412.54926	247.49908	39.04699	401.62909	278.61252	33.64221	389.31161	308.94925	27.39483	367.13354	338.32675	16.91552	338.72623	367.74875	8.01000	316.84445	402.56039	3.88655	402.65860	216.66309	23.03410	393.04691	224.63692	14.70065	399.68222	217.50821	0.75839	428.51639	216.35699	28.06720	437.44507	224.92273	30.52290	449.45230	226.52167	15.07416	391.89279	278.60565	27.34251	373.78250	281.67554	22.09206	362.62061	300.31534	18.24766	367.94891	300.86911	9.53734	410.53381	285.21524	26.87345	426.65350	290.58832	18.00076	423.95001	303.75119	1.29339	432.32059	295.73221	1.63716	
4554	37.942	411.73053	185.77061	46.91972	412.00769	196.55298	47.26962	415.05289	218.57582	41.06316	412.67209	246.87598	39.11691	401.84326	278.00150	33.72083	389.42715	308.27469	27.46175	367.34454	337.65936	16.93246	339.02213	367.25659	8.00233	317.13931	402.00992	3.90471	402.27701	216.43396	23.15168	393.11292	224.55238	14.72261	399.67590	217.50615	0.75481	428.22897	215.07596	28.34917	437.38248	223.27657	30.93364	449.78891	223.38217	15.80204	392.14804	277.83542	27.37879	373.94446	280.96274	22.30290	362.79507	299.49100	18.59438	368.13623	300.50607	9.97968	410.72235	284.62820	26.91064	426.64328	290.41693	17.87621	424.04416	303.74539	1.42053	432.40424	295.75250	1.75116	
4555	37.950	411.59314	185.01558	46.99809	411.76413	195.81696	47.19806	414.82837	217.78807	40.94854	412.72449	246.28574	39.16784	402.05435	277.38351	33.80343	389.52728	307.64835	27.49420	367.52899	337.03830	16.90906	339.33560	366.73502	7.97926	317.40695	401.49771	3.92571	401.75827	216.23538	23.39711	393.18509	224.48888	14.73771	399.68863	217.28653	0.85430	427.84906	213.88686	28.64957	437.31790	221.72717	31.27800	449.79340	220.24747	16.40674	392.40607	277.03247	27.37925	374.07440	280.23764	22.46377	362.91403	298.85529	18.94915	368.23584	300.22348	10.35293	410.85483	284.04352	26.91097	426.64606	290.24881	17.76149	424.16672	303.73563	1.59983	432.48816	295.77090	1.86810	
4556	37.958	411.36230	184.36554	46.99694	411.52255	195.11749	47.15746	414.60443	217.05707	40.86032	412.76566	245.68846	39.17253	402.25421	276.75305	33.88741	389.61948	307.08862	27.50216	367.68408	336.48065	16.86287	339.64160	366.23682	7.94431	317.67120	401.02124	3.92579	401.18509	216.07597	23.67588	393.22604	224.41515	14.72916	399.71970	216.86969	1.04412	427.40277	212.82516	28.92244	437.19678	220.30878	31.51567	449.53207	217.11435	16.93151	392.62662	276.27820	27.34572	374.18317	279.50146	22.58751	362.95230	298.35593	19.29629	368.26666	299.99689	10.63895	410.88049	283.43027	26.81146	426.64981	290.08841	17.66968	424.20349	303.71384	1.72863	432.55237	295.77393	1.95314	
4557	37.967	411.06049	183.80081	46.94786	411.28238	194.46294	47.13147	414.35846	216.41557	40.79929	412.77325	245.12189	39.13457	402.43488	276.17441	33.95282	389.68774	306.59744	27.48063	367.83496	335.92548	16.80192	339.91870	365.79953	7.91007	317.94031	400.56699	3.91941	400.69711	215.83588	23.86699	393.23831	224.35324	14.72460	399.74112	216.48827	1.21456	426.92548	211.84186	29.16531	437.08130	219.05634	31.65719	449.03781	214.00424	17.40681	392.85458	275.55569	27.28099	374.27103	278.81470	22.68642	362.93759	297.89087	19.55203	368.28009	299.79175	10.85463	410.87363	282.82202	26.69790	426.62558	289.94321	17.58747	424.19031	303.69846	1.77868	432.50095	295.79639	1.94648	
4558	37.975	410.76208	183.25914	46.87606	411.01724	193.90213	47.14054	414.10660	215.85785	40.76698	412.78766	244.57085	39.07581	402.59451	275.63184	33.99440	389.74655	306.15894	27.42561	367.99966	335.44968	16.75375	340.19247	365.39197	7.86290	318.19830	400.14789	3.90449	400.33664	215.46550	23.92318	393.21161	224.27214	14.68569	399.74341	216.34167	1.29510	426.63110	211.06310	29.30886	436.98630	217.92087	31.72087	448.34305	211.01984	17.80482	393.07571	274.84802	27.20735	374.35077	278.10907	22.80244	362.85641	297.43857	19.75004	368.25125	299.63425	10.97346	410.90192	282.25284	26.63788	426.59378	289.84259	17.56715	424.13181	303.69470	1.75689	432.36279	295.83847	1.88552	
4559	37.983	410.47504	182.75491	46.80233	410.72504	193.45949	47.18759	413.85403	215.38422	40.76193	412.79718	244.05939	38.99548	402.72159	275.15057	34.02917	389.76422	305.75235	27.32983	368.18707	334.99838	16.70836	340.44968	365.02255	7.79866	318.45337	399.77390	3.88153	400.10553	215.09190	23.83224	393.14325	224.18694	14.64416	399.72192	216.44318	1.24977	426.43588	210.44366	29.38215	436.87985	216.89342	31.69862	447.56934	208.26134	18.18627	393.26273	274.25986	27.17708	374.42279	277.43091	22.96107	362.85098	296.85724	19.83201	368.19199	299.51154	11.02143	410.97571	281.74893	26.63614	426.51279	289.74585	17.55197	424.06760	303.69992	1.70768	432.19876	295.85645	1.76580	
